0
SECTION
2
HEADER
9
$ACADVER
1
AC1009
9
$INSUNITS
70
4
9
$EXTMIN
10
0.0000
20
0.0000
30
0.0000
9
$EXTMAX
10
420.0000
20
297.0000
30
0.0000
0
ENDSEC
0
SECTION
2
TABLES
0
TABLE
2
LTYPE
70
1
0
LTYPE
2
CONTINUOUS
70
0
3
Trait continu
72
65
73
0
40
0.0000
0
ENDTAB
0
TABLE
2
LAYER
70
5
0
LAYER
2
SYMBOLES
70
0
62
7
6
CONTINUOUS
0
LAYER
2
FILS
70
0
62
5
6
CONTINUOUS
0
LAYER
2
REPERES
70
0
62
3
6
CONTINUOUS
0
LAYER
2
TEXTES
70
0
62
4
6
CONTINUOUS
0
LAYER
2
CADRE
70
0
62
8
6
CONTINUOUS
0
ENDTAB
0
ENDSEC
0
SECTION
2
BLOCKS
0
BLOCK
8
SYMBOLES
2
IEC_MOTOR-3PH
70
0
10
0.0000
20
0.0000
30
0.0000
3
IEC_MOTOR-3PH
1

0
CIRCLE
8
SYMBOLES
10
0.0000
20
0.0000
30
0.0000
40
8.0000
0
TEXT
8
SYMBOLES
10
0.0000
20
-1.0000
30
0.0000
40
5.0000
1
M
72
1
11
0.0000
21
-1.0000
31
0.0000
0
TEXT
8
SYMBOLES
10
0.0000
20
-6.0000
30
0.0000
40
3.0000
1
3~
72
1
11
0.0000
21
-6.0000
31
0.0000
0
LINE
8
SYMBOLES
10
-5.0000
20
8.0000
30
0.0000
11
-5.0000
21
13.0000
31
0.0000
0
LINE
8
SYMBOLES
10
0.0000
20
8.0000
30
0.0000
11
0.0000
21
13.0000
31
0.0000
0
LINE
8
SYMBOLES
10
5.0000
20
8.0000
30
0.0000
11
5.0000
21
13.0000
31
0.0000
0
LINE
8
SYMBOLES
10
0.0000
20
-8.0000
30
0.0000
11
0.0000
21
-13.0000
31
0.0000
0
ENDBLK
8
SYMBOLES
0
BLOCK
8
SYMBOLES
2
IEC_THERMAL-RELAY-3P
70
0
10
0.0000
20
0.0000
30
0.0000
3
IEC_THERMAL-RELAY-3P
1

0
POLYLINE
8
SYMBOLES
66
1
10
0.0000
20
0.0000
30
0.0000
70
1
0
VERTEX
8
SYMBOLES
10
-11.0000
20
5.0000
30
0.0000
0
VERTEX
8
SYMBOLES
10
7.0000
20
5.0000
30
0.0000
0
VERTEX
8
SYMBOLES
10
7.0000
20
-5.0000
30
0.0000
0
VERTEX
8
SYMBOLES
10
-11.0000
20
-5.0000
30
0.0000
0
SEQEND
8
SYMBOLES
0
POLYLINE
8
SYMBOLES
66
1
10
0.0000
20
0.0000
30
0.0000
70
0
0
VERTEX
8
SYMBOLES
10
-7.5000
20
5.0000
30
0.0000
0
VERTEX
8
SYMBOLES
10
-7.5000
20
1.0000
30
0.0000
0
VERTEX
8
SYMBOLES
10
-5.5000
20
1.0000
30
0.0000
0
VERTEX
8
SYMBOLES
10
-5.5000
20
-1.0000
30
0.0000
0
VERTEX
8
SYMBOLES
10
-7.5000
20
-1.0000
30
0.0000
0
VERTEX
8
SYMBOLES
10
-7.5000
20
-5.0000
30
0.0000
0
SEQEND
8
SYMBOLES
0
POLYLINE
8
SYMBOLES
66
1
10
0.0000
20
0.0000
30
0.0000
70
0
0
VERTEX
8
SYMBOLES
10
0.0000
20
5.0000
30
0.0000
0
VERTEX
8
SYMBOLES
10
0.0000
20
1.0000
30
0.0000
0
VERTEX
8
SYMBOLES
10
2.0000
20
1.0000
30
0.0000
0
VERTEX
8
SYMBOLES
10
2.0000
20
-1.0000
30
0.0000
0
VERTEX
8
SYMBOLES
10
0.0000
20
-1.0000
30
0.0000
0
VERTEX
8
SYMBOLES
10
0.0000
20
-5.0000
30
0.0000
0
SEQEND
8
SYMBOLES
0
POLYLINE
8
SYMBOLES
66
1
10
0.0000
20
0.0000
30
0.0000
70
0
0
VERTEX
8
SYMBOLES
10
7.5000
20
5.0000
30
0.0000
0
VERTEX
8
SYMBOLES
10
7.5000
20
1.0000
30
0.0000
0
VERTEX
8
SYMBOLES
10
9.5000
20
1.0000
30
0.0000
0
VERTEX
8
SYMBOLES
10
9.5000
20
-1.0000
30
0.0000
0
VERTEX
8
SYMBOLES
10
7.5000
20
-1.0000
30
0.0000
0
VERTEX
8
SYMBOLES
10
7.5000
20
-5.0000
30
0.0000
0
SEQEND
8
SYMBOLES
0
LINE
8
SYMBOLES
10
-7.5000
20
5.0000
30
0.0000
11
-7.5000
21
10.0000
31
0.0000
0
LINE
8
SYMBOLES
10
-7.5000
20
-5.0000
30
0.0000
11
-7.5000
21
-10.0000
31
0.0000
0
LINE
8
SYMBOLES
10
0.0000
20
5.0000
30
0.0000
11
0.0000
21
10.0000
31
0.0000
0
LINE
8
SYMBOLES
10
0.0000
20
-5.0000
30
0.0000
11
0.0000
21
-10.0000
31
0.0000
0
LINE
8
SYMBOLES
10
7.5000
20
5.0000
30
0.0000
11
7.5000
21
10.0000
31
0.0000
0
LINE
8
SYMBOLES
10
7.5000
20
-5.0000
30
0.0000
11
7.5000
21
-10.0000
31
0.0000
0
ENDBLK
8
SYMBOLES
0
BLOCK
8
SYMBOLES
2
IEC_EARTH
70
0
10
0.0000
20
0.0000
30
0.0000
3
IEC_EARTH
1

0
LINE
8
SYMBOLES
10
-5.0000
20
0.0000
30
0.0000
11
5.0000
21
0.0000
31
0.0000
0
LINE
8
SYMBOLES
10
-3.2000
20
-2.2000
30
0.0000
11
3.2000
21
-2.2000
31
0.0000
0
LINE
8
SYMBOLES
10
-1.4000
20
-4.4000
30
0.0000
11
1.4000
21
-4.4000
31
0.0000
0
LINE
8
SYMBOLES
10
0.0000
20
0.0000
30
0.0000
11
0.0000
21
6.0000
31
0.0000
0
ENDBLK
8
SYMBOLES
0
BLOCK
8
SYMBOLES
2
IEC_CIRCUIT-BREAKER-3P
70
0
10
0.0000
20
0.0000
30
0.0000
3
IEC_CIRCUIT-BREAKER-3P
1

0
LINE
8
SYMBOLES
10
-7.5000
20
-5.0000
30
0.0000
11
-11.7000
21
3.0000
31
0.0000
0
LINE
8
SYMBOLES
10
0.0000
20
-5.0000
30
0.0000
11
-4.2000
21
3.0000
31
0.0000
0
LINE
8
SYMBOLES
10
7.5000
20
-5.0000
30
0.0000
11
3.3000
21
3.0000
31
0.0000
0
POLYLINE
8
SYMBOLES
66
1
10
0.0000
20
0.0000
30
0.0000
70
0
0
VERTEX
8
SYMBOLES
10
-2.6000
20
4.6000
30
0.0000
0
VERTEX
8
SYMBOLES
10
-1.4000
20
3.4000
30
0.0000
0
VERTEX
8
SYMBOLES
10
-2.6000
20
2.2000
30
0.0000
0
SEQEND
8
SYMBOLES
0
POLYLINE
8
SYMBOLES
66
1
10
0.0000
20
0.0000
30
0.0000
70
0
0
VERTEX
8
SYMBOLES
10
-4.4000
20
4.6000
30
0.0000
0
VERTEX
8
SYMBOLES
10
-3.2000
20
3.4000
30
0.0000
0
VERTEX
8
SYMBOLES
10
-4.4000
20
2.2000
30
0.0000
0
SEQEND
8
SYMBOLES
0
LINE
8
SYMBOLES
10
-11.7000
20
1.0000
30
0.0000
11
3.3000
21
1.0000
31
0.0000
0
LINE
8
SYMBOLES
10
-7.5000
20
5.0000
30
0.0000
11
-7.5000
21
10.0000
31
0.0000
0
LINE
8
SYMBOLES
10
-7.5000
20
-5.0000
30
0.0000
11
-7.5000
21
-10.0000
31
0.0000
0
LINE
8
SYMBOLES
10
0.0000
20
5.0000
30
0.0000
11
0.0000
21
10.0000
31
0.0000
0
LINE
8
SYMBOLES
10
0.0000
20
-5.0000
30
0.0000
11
0.0000
21
-10.0000
31
0.0000
0
LINE
8
SYMBOLES
10
7.5000
20
5.0000
30
0.0000
11
7.5000
21
10.0000
31
0.0000
0
LINE
8
SYMBOLES
10
7.5000
20
-5.0000
30
0.0000
11
7.5000
21
-10.0000
31
0.0000
0
ENDBLK
8
SYMBOLES
0
BLOCK
8
SYMBOLES
2
IEC_CONTACTOR-POWER-3P
70
0
10
0.0000
20
0.0000
30
0.0000
3
IEC_CONTACTOR-POWER-3P
1

0
LINE
8
SYMBOLES
10
-7.5000
20
-5.0000
30
0.0000
11
-11.7000
21
3.0000
31
0.0000
0
LINE
8
SYMBOLES
10
0.0000
20
-5.0000
30
0.0000
11
-4.2000
21
3.0000
31
0.0000
0
LINE
8
SYMBOLES
10
7.5000
20
-5.0000
30
0.0000
11
3.3000
21
3.0000
31
0.0000
0
ARC
8
SYMBOLES
10
-7.5000
20
-3.5000
30
0.0000
40
1.8000
50
180.0000
51
0.0000
0
ARC
8
SYMBOLES
10
0.0000
20
-3.5000
30
0.0000
40
1.8000
50
180.0000
51
0.0000
0
ARC
8
SYMBOLES
10
7.5000
20
-3.5000
30
0.0000
40
1.8000
50
180.0000
51
0.0000
0
LINE
8
SYMBOLES
10
-11.7000
20
1.0000
30
0.0000
11
3.3000
21
1.0000
31
0.0000
0
LINE
8
SYMBOLES
10
-7.5000
20
5.0000
30
0.0000
11
-7.5000
21
10.0000
31
0.0000
0
LINE
8
SYMBOLES
10
-7.5000
20
-5.0000
30
0.0000
11
-7.5000
21
-10.0000
31
0.0000
0
LINE
8
SYMBOLES
10
0.0000
20
5.0000
30
0.0000
11
0.0000
21
10.0000
31
0.0000
0
LINE
8
SYMBOLES
10
0.0000
20
-5.0000
30
0.0000
11
0.0000
21
-10.0000
31
0.0000
0
LINE
8
SYMBOLES
10
7.5000
20
5.0000
30
0.0000
11
7.5000
21
10.0000
31
0.0000
0
LINE
8
SYMBOLES
10
7.5000
20
-5.0000
30
0.0000
11
7.5000
21
-10.0000
31
0.0000
0
ENDBLK
8
SYMBOLES
0
ENDSEC
0
SECTION
2
ENTITIES
0
POLYLINE
8
CADRE
66
1
10
0.0000
20
0.0000
30
0.0000
70
1
0
VERTEX
8
CADRE
10
20.0000
20
287.0000
30
0.0000
0
VERTEX
8
CADRE
10
410.0000
20
287.0000
30
0.0000
0
VERTEX
8
CADRE
10
410.0000
20
10.0000
30
0.0000
0
VERTEX
8
CADRE
10
20.0000
20
10.0000
30
0.0000
0
SEQEND
8
CADRE
0
POLYLINE
8
CADRE
66
1
10
0.0000
20
0.0000
30
0.0000
70
1
0
VERTEX
8
CADRE
10
230.0000
20
50.0000
30
0.0000
0
VERTEX
8
CADRE
10
410.0000
20
50.0000
30
0.0000
0
VERTEX
8
CADRE
10
410.0000
20
10.0000
30
0.0000
0
VERTEX
8
CADRE
10
230.0000
20
10.0000
30
0.0000
0
SEQEND
8
CADRE
0
TEXT
8
CADRE
10
234.0000
20
42.0000
30
0.0000
40
3.5000
1
Démarrage direct d'un moteur
0
TEXT
8
CADRE
10
234.0000
20
34.0000
30
0.0000
40
2.5000
1
Folio 1
0
TEXT
8
TEXTES
10
35.0000
20
267.0000
30
0.0000
40
4.0000
1
Démarrage direct — moteur 1,5 kW
0
TEXT
8
REPERES
10
132.5000
20
256.5000
30
0.0000
40
2.0000
1
L1
72
1
11
132.5000
21
256.5000
31
0.0000
0
POLYLINE
8
FILS
66
1
10
0.0000
20
0.0000
30
0.0000
70
0
0
VERTEX
8
FILS
10
132.5000
20
255.0000
30
0.0000
0
VERTEX
8
FILS
10
132.5000
20
237.0000
30
0.0000
0
SEQEND
8
FILS
0
TEXT
8
REPERES
10
132.5000
20
247.2000
30
0.0000
40
2.0000
1
103
72
1
11
132.5000
21
247.2000
31
0.0000
0
TEXT
8
REPERES
10
140.0000
20
256.5000
30
0.0000
40
2.0000
1
L2
72
1
11
140.0000
21
256.5000
31
0.0000
0
POLYLINE
8
FILS
66
1
10
0.0000
20
0.0000
30
0.0000
70
0
0
VERTEX
8
FILS
10
140.0000
20
255.0000
30
0.0000
0
VERTEX
8
FILS
10
140.0000
20
237.0000
30
0.0000
0
SEQEND
8
FILS
0
TEXT
8
REPERES
10
140.0000
20
247.2000
30
0.0000
40
2.0000
1
104
72
1
11
140.0000
21
247.2000
31
0.0000
0
TEXT
8
REPERES
10
147.5000
20
256.5000
30
0.0000
40
2.0000
1
L3
72
1
11
147.5000
21
256.5000
31
0.0000
0
POLYLINE
8
FILS
66
1
10
0.0000
20
0.0000
30
0.0000
70
0
0
VERTEX
8
FILS
10
147.5000
20
255.0000
30
0.0000
0
VERTEX
8
FILS
10
147.5000
20
237.0000
30
0.0000
0
SEQEND
8
FILS
0
TEXT
8
REPERES
10
147.5000
20
247.2000
30
0.0000
40
2.0000
1
104A
72
1
11
147.5000
21
247.2000
31
0.0000
0
INSERT
8
SYMBOLES
2
IEC_CIRCUIT-BREAKER-3P
10
140.0000
20
227.0000
30
0.0000
41
1.0000
42
1.0000
43
1.0000
50
0.0000
0
TEXT
8
REPERES
10
126.0000
20
229.0000
30
0.0000
40
2.5000
1
-Q1
72
1
11
126.0000
21
229.0000
31
0.0000
0
INSERT
8
SYMBOLES
2
IEC_CONTACTOR-POWER-3P
10
140.0000
20
177.0000
30
0.0000
41
1.0000
42
1.0000
43
1.0000
50
0.0000
0
TEXT
8
REPERES
10
126.0000
20
179.0000
30
0.0000
40
2.5000
1
-K1
72
1
11
126.0000
21
179.0000
31
0.0000
0
INSERT
8
SYMBOLES
2
IEC_THERMAL-RELAY-3P
10
140.0000
20
127.0000
30
0.0000
41
1.0000
42
1.0000
43
1.0000
50
0.0000
0
TEXT
8
REPERES
10
126.0000
20
129.0000
30
0.0000
40
2.5000
1
-F1
72
1
11
126.0000
21
129.0000
31
0.0000
0
POLYLINE
8
FILS
66
1
10
0.0000
20
0.0000
30
0.0000
70
0
0
VERTEX
8
FILS
10
132.5000
20
217.0000
30
0.0000
0
VERTEX
8
FILS
10
132.5000
20
187.0000
30
0.0000
0
SEQEND
8
FILS
0
TEXT
8
REPERES
10
132.5000
20
203.2000
30
0.0000
40
2.0000
1
103A
72
1
11
132.5000
21
203.2000
31
0.0000
0
POLYLINE
8
FILS
66
1
10
0.0000
20
0.0000
30
0.0000
70
0
0
VERTEX
8
FILS
10
132.5000
20
167.0000
30
0.0000
0
VERTEX
8
FILS
10
132.5000
20
137.0000
30
0.0000
0
SEQEND
8
FILS
0
TEXT
8
REPERES
10
132.5000
20
153.2000
30
0.0000
40
2.0000
1
103B
72
1
11
132.5000
21
153.2000
31
0.0000
0
POLYLINE
8
FILS
66
1
10
0.0000
20
0.0000
30
0.0000
70
0
0
VERTEX
8
FILS
10
140.0000
20
217.0000
30
0.0000
0
VERTEX
8
FILS
10
140.0000
20
187.0000
30
0.0000
0
SEQEND
8
FILS
0
TEXT
8
REPERES
10
140.0000
20
203.2000
30
0.0000
40
2.0000
1
104B
72
1
11
140.0000
21
203.2000
31
0.0000
0
POLYLINE
8
FILS
66
1
10
0.0000
20
0.0000
30
0.0000
70
0
0
VERTEX
8
FILS
10
140.0000
20
167.0000
30
0.0000
0
VERTEX
8
FILS
10
140.0000
20
137.0000
30
0.0000
0
SEQEND
8
FILS
0
TEXT
8
REPERES
10
140.0000
20
153.2000
30
0.0000
40
2.0000
1
104D
72
1
11
140.0000
21
153.2000
31
0.0000
0
POLYLINE
8
FILS
66
1
10
0.0000
20
0.0000
30
0.0000
70
0
0
VERTEX
8
FILS
10
147.5000
20
217.0000
30
0.0000
0
VERTEX
8
FILS
10
147.5000
20
187.0000
30
0.0000
0
SEQEND
8
FILS
0
TEXT
8
REPERES
10
147.5000
20
203.2000
30
0.0000
40
2.0000
1
104C
72
1
11
147.5000
21
203.2000
31
0.0000
0
POLYLINE
8
FILS
66
1
10
0.0000
20
0.0000
30
0.0000
70
0
0
VERTEX
8
FILS
10
147.5000
20
167.0000
30
0.0000
0
VERTEX
8
FILS
10
147.5000
20
137.0000
30
0.0000
0
SEQEND
8
FILS
0
TEXT
8
REPERES
10
147.5000
20
153.2000
30
0.0000
40
2.0000
1
104E
72
1
11
147.5000
21
153.2000
31
0.0000
0
INSERT
8
SYMBOLES
2
IEC_MOTOR-3PH
10
140.0000
20
67.0000
30
0.0000
41
1.0000
42
1.0000
43
1.0000
50
0.0000
0
TEXT
8
REPERES
10
129.0000
20
67.0000
30
0.0000
40
2.5000
1
-M1
72
1
11
129.0000
21
67.0000
31
0.0000
0
POLYLINE
8
FILS
66
1
10
0.0000
20
0.0000
30
0.0000
70
0
0
VERTEX
8
FILS
10
132.5000
20
117.0000
30
0.0000
0
VERTEX
8
FILS
10
132.5000
20
92.0000
30
0.0000
0
VERTEX
8
FILS
10
135.0000
20
92.0000
30
0.0000
0
VERTEX
8
FILS
10
135.0000
20
80.0000
30
0.0000
0
SEQEND
8
FILS
0
TEXT
8
REPERES
10
132.5000
20
105.7000
30
0.0000
40
2.0000
1
103C
72
1
11
132.5000
21
105.7000
31
0.0000
0
POLYLINE
8
FILS
66
1
10
0.0000
20
0.0000
30
0.0000
70
0
0
VERTEX
8
FILS
10
140.0000
20
117.0000
30
0.0000
0
VERTEX
8
FILS
10
140.0000
20
80.0000
30
0.0000
0
SEQEND
8
FILS
0
TEXT
8
REPERES
10
140.0000
20
99.7000
30
0.0000
40
2.0000
1
104F
72
1
11
140.0000
21
99.7000
31
0.0000
0
POLYLINE
8
FILS
66
1
10
0.0000
20
0.0000
30
0.0000
70
0
0
VERTEX
8
FILS
10
147.5000
20
117.0000
30
0.0000
0
VERTEX
8
FILS
10
147.5000
20
92.0000
30
0.0000
0
VERTEX
8
FILS
10
145.0000
20
92.0000
30
0.0000
0
VERTEX
8
FILS
10
145.0000
20
80.0000
30
0.0000
0
SEQEND
8
FILS
0
TEXT
8
REPERES
10
147.5000
20
105.7000
30
0.0000
40
2.0000
1
104G
72
1
11
147.5000
21
105.7000
31
0.0000
0
INSERT
8
SYMBOLES
2
IEC_EARTH
10
140.0000
20
42.0000
30
0.0000
41
1.0000
42
1.0000
43
1.0000
50
0.0000
0
TEXT
8
REPERES
10
132.0000
20
39.0000
30
0.0000
40
2.5000
1
-PE1
72
1
11
132.0000
21
39.0000
31
0.0000
0
POLYLINE
8
FILS
66
1
10
0.0000
20
0.0000
30
0.0000
70
0
0
VERTEX
8
FILS
10
140.0000
20
54.0000
30
0.0000
0
VERTEX
8
FILS
10
140.0000
20
48.0000
30
0.0000
0
SEQEND
8
FILS
0
TEXT
8
REPERES
10
140.0000
20
52.2000
30
0.0000
40
2.0000
1
104H
72
1
11
140.0000
21
52.2000
31
0.0000
0
ENDSEC
0
EOF
