0
SECTION
2
HEADER
9
$ACADVER
1
AC1009
9
$INSUNITS
70
4
9
$EXTMIN
10
0.0000
20
0.0000
30
0.0000
9
$EXTMAX
10
420.0000
20
297.0000
30
0.0000
0
ENDSEC
0
SECTION
2
TABLES
0
TABLE
2
LTYPE
70
1
0
LTYPE
2
CONTINUOUS
70
0
3
Trait continu
72
65
73
0
40
0.0000
0
ENDTAB
0
TABLE
2
LAYER
70
5
0
LAYER
2
SYMBOLES
70
0
62
7
6
CONTINUOUS
0
LAYER
2
FILS
70
0
62
5
6
CONTINUOUS
0
LAYER
2
REPERES
70
0
62
3
6
CONTINUOUS
0
LAYER
2
TEXTES
70
0
62
4
6
CONTINUOUS
0
LAYER
2
CADRE
70
0
62
8
6
CONTINUOUS
0
ENDTAB
0
ENDSEC
0
SECTION
2
BLOCKS
0
BLOCK
8
SYMBOLES
2
IEC_THERMAL-CONTACT
70
0
10
0.0000
20
0.0000
30
0.0000
3
IEC_THERMAL-CONTACT
1

0
LINE
8
SYMBOLES
10
0.0000
20
-3.0000
30
0.0000
11
-3.6000
21
3.2000
31
0.0000
0
LINE
8
SYMBOLES
10
-4.6000
20
3.0000
30
0.0000
11
-1.2000
21
3.0000
31
0.0000
0
POLYLINE
8
SYMBOLES
66
1
10
0.0000
20
0.0000
30
0.0000
70
0
0
VERTEX
8
SYMBOLES
10
-3.6000
20
3.2000
30
0.0000
0
VERTEX
8
SYMBOLES
10
-3.6000
20
5.5000
30
0.0000
0
VERTEX
8
SYMBOLES
10
-6.0000
20
5.5000
30
0.0000
0
VERTEX
8
SYMBOLES
10
-6.0000
20
7.5000
30
0.0000
0
SEQEND
8
SYMBOLES
0
LINE
8
SYMBOLES
10
0.0000
20
3.0000
30
0.0000
11
0.0000
21
10.0000
31
0.0000
0
LINE
8
SYMBOLES
10
0.0000
20
-3.0000
30
0.0000
11
0.0000
21
-10.0000
31
0.0000
0
ENDBLK
8
SYMBOLES
0
BLOCK
8
SYMBOLES
2
IEC_COIL
70
0
10
0.0000
20
0.0000
30
0.0000
3
IEC_COIL
1

0
POLYLINE
8
SYMBOLES
66
1
10
0.0000
20
0.0000
30
0.0000
70
1
0
VERTEX
8
SYMBOLES
10
-5.0000
20
4.0000
30
0.0000
0
VERTEX
8
SYMBOLES
10
5.0000
20
4.0000
30
0.0000
0
VERTEX
8
SYMBOLES
10
5.0000
20
-4.0000
30
0.0000
0
VERTEX
8
SYMBOLES
10
-5.0000
20
-4.0000
30
0.0000
0
SEQEND
8
SYMBOLES
0
LINE
8
SYMBOLES
10
0.0000
20
4.0000
30
0.0000
11
0.0000
21
10.0000
31
0.0000
0
LINE
8
SYMBOLES
10
0.0000
20
-4.0000
30
0.0000
11
0.0000
21
-10.0000
31
0.0000
0
ENDBLK
8
SYMBOLES
0
BLOCK
8
SYMBOLES
2
IEC_FUSE
70
0
10
0.0000
20
0.0000
30
0.0000
3
IEC_FUSE
1

0
POLYLINE
8
SYMBOLES
66
1
10
0.0000
20
0.0000
30
0.0000
70
1
0
VERTEX
8
SYMBOLES
10
-2.5000
20
5.0000
30
0.0000
0
VERTEX
8
SYMBOLES
10
2.5000
20
5.0000
30
0.0000
0
VERTEX
8
SYMBOLES
10
2.5000
20
-5.0000
30
0.0000
0
VERTEX
8
SYMBOLES
10
-2.5000
20
-5.0000
30
0.0000
0
SEQEND
8
SYMBOLES
0
LINE
8
SYMBOLES
10
0.0000
20
5.0000
30
0.0000
11
0.0000
21
-5.0000
31
0.0000
0
LINE
8
SYMBOLES
10
0.0000
20
5.0000
30
0.0000
11
0.0000
21
10.0000
31
0.0000
0
LINE
8
SYMBOLES
10
0.0000
20
-5.0000
30
0.0000
11
0.0000
21
-10.0000
31
0.0000
0
ENDBLK
8
SYMBOLES
0
BLOCK
8
SYMBOLES
2
IEC_INDICATOR-LAMP
70
0
10
0.0000
20
0.0000
30
0.0000
3
IEC_INDICATOR-LAMP
1

0
CIRCLE
8
SYMBOLES
10
0.0000
20
0.0000
30
0.0000
40
4.0000
0
LINE
8
SYMBOLES
10
-2.8000
20
2.8000
30
0.0000
11
2.8000
21
-2.8000
31
0.0000
0
LINE
8
SYMBOLES
10
-2.8000
20
-2.8000
30
0.0000
11
2.8000
21
2.8000
31
0.0000
0
LINE
8
SYMBOLES
10
0.0000
20
4.0000
30
0.0000
11
0.0000
21
10.0000
31
0.0000
0
LINE
8
SYMBOLES
10
0.0000
20
-4.0000
30
0.0000
11
0.0000
21
-10.0000
31
0.0000
0
ENDBLK
8
SYMBOLES
0
BLOCK
8
SYMBOLES
2
IEC_PUSHBUTTON-NO
70
0
10
0.0000
20
0.0000
30
0.0000
3
IEC_PUSHBUTTON-NO
1

0
LINE
8
SYMBOLES
10
0.0000
20
-3.0000
30
0.0000
11
-3.6000
21
2.6000
31
0.0000
0
LINE
8
SYMBOLES
10
-3.6000
20
2.6000
30
0.0000
11
-3.6000
21
6.0000
31
0.0000
0
LINE
8
SYMBOLES
10
-6.0000
20
6.0000
30
0.0000
11
-1.2000
21
6.0000
31
0.0000
0
LINE
8
SYMBOLES
10
0.0000
20
3.0000
30
0.0000
11
0.0000
21
10.0000
31
0.0000
0
LINE
8
SYMBOLES
10
0.0000
20
-3.0000
30
0.0000
11
0.0000
21
-10.0000
31
0.0000
0
ENDBLK
8
SYMBOLES
0
BLOCK
8
SYMBOLES
2
IEC_CONTACT-NO
70
0
10
0.0000
20
0.0000
30
0.0000
3
IEC_CONTACT-NO
1

0
LINE
8
SYMBOLES
10
0.0000
20
-3.0000
30
0.0000
11
-3.6000
21
2.6000
31
0.0000
0
LINE
8
SYMBOLES
10
0.0000
20
3.0000
30
0.0000
11
0.0000
21
10.0000
31
0.0000
0
LINE
8
SYMBOLES
10
0.0000
20
-3.0000
30
0.0000
11
0.0000
21
-10.0000
31
0.0000
0
ENDBLK
8
SYMBOLES
0
BLOCK
8
SYMBOLES
2
IEC_PUSHBUTTON-NC
70
0
10
0.0000
20
0.0000
30
0.0000
3
IEC_PUSHBUTTON-NC
1

0
LINE
8
SYMBOLES
10
0.0000
20
-3.0000
30
0.0000
11
-3.6000
21
3.2000
31
0.0000
0
LINE
8
SYMBOLES
10
-4.6000
20
3.0000
30
0.0000
11
-1.2000
21
3.0000
31
0.0000
0
LINE
8
SYMBOLES
10
-3.6000
20
3.2000
30
0.0000
11
-3.6000
21
6.0000
31
0.0000
0
LINE
8
SYMBOLES
10
-6.0000
20
6.0000
30
0.0000
11
-1.2000
21
6.0000
31
0.0000
0
LINE
8
SYMBOLES
10
0.0000
20
3.0000
30
0.0000
11
0.0000
21
10.0000
31
0.0000
0
LINE
8
SYMBOLES
10
0.0000
20
-3.0000
30
0.0000
11
0.0000
21
-10.0000
31
0.0000
0
ENDBLK
8
SYMBOLES
0
ENDSEC
0
SECTION
2
ENTITIES
0
POLYLINE
8
CADRE
66
1
10
0.0000
20
0.0000
30
0.0000
70
1
0
VERTEX
8
CADRE
10
20.0000
20
287.0000
30
0.0000
0
VERTEX
8
CADRE
10
410.0000
20
287.0000
30
0.0000
0
VERTEX
8
CADRE
10
410.0000
20
10.0000
30
0.0000
0
VERTEX
8
CADRE
10
20.0000
20
10.0000
30
0.0000
0
SEQEND
8
CADRE
0
POLYLINE
8
CADRE
66
1
10
0.0000
20
0.0000
30
0.0000
70
1
0
VERTEX
8
CADRE
10
230.0000
20
50.0000
30
0.0000
0
VERTEX
8
CADRE
10
410.0000
20
50.0000
30
0.0000
0
VERTEX
8
CADRE
10
410.0000
20
10.0000
30
0.0000
0
VERTEX
8
CADRE
10
230.0000
20
10.0000
30
0.0000
0
SEQEND
8
CADRE
0
TEXT
8
CADRE
10
234.0000
20
42.0000
30
0.0000
40
3.5000
1
Démarrage direct d'un moteur
0
TEXT
8
CADRE
10
234.0000
20
34.0000
30
0.0000
40
2.5000
1
Folio 2
0
TEXT
8
TEXTES
10
35.0000
20
267.0000
30
0.0000
40
4.0000
1
Commande 230 V — marche / arrêt
0
TEXT
8
REPERES
10
80.0000
20
258.5000
30
0.0000
40
2.0000
1
L1
72
1
11
80.0000
21
258.5000
31
0.0000
0
POLYLINE
8
FILS
66
1
10
0.0000
20
0.0000
30
0.0000
70
0
0
VERTEX
8
FILS
10
80.0000
20
257.0000
30
0.0000
0
VERTEX
8
FILS
10
80.0000
20
247.0000
30
0.0000
0
SEQEND
8
FILS
0
TEXT
8
REPERES
10
80.0000
20
253.2000
30
0.0000
40
2.0000
1
103
72
1
11
80.0000
21
253.2000
31
0.0000
0
INSERT
8
SYMBOLES
2
IEC_FUSE
10
80.0000
20
237.0000
30
0.0000
41
1.0000
42
1.0000
43
1.0000
50
0.0000
0
TEXT
8
REPERES
10
72.0000
20
239.0000
30
0.0000
40
2.5000
1
-F2
72
1
11
72.0000
21
239.0000
31
0.0000
0
POLYLINE
8
FILS
66
1
10
0.0000
20
0.0000
30
0.0000
70
0
0
VERTEX
8
FILS
10
80.0000
20
227.0000
30
0.0000
0
VERTEX
8
FILS
10
80.0000
20
212.0000
30
0.0000
0
SEQEND
8
FILS
0
TEXT
8
REPERES
10
80.0000
20
220.7000
30
0.0000
40
2.0000
1
202
72
1
11
80.0000
21
220.7000
31
0.0000
0
INSERT
8
SYMBOLES
2
IEC_THERMAL-CONTACT
10
80.0000
20
202.0000
30
0.0000
41
1.0000
42
1.0000
43
1.0000
50
0.0000
0
TEXT
8
REPERES
10
72.0000
20
204.0000
30
0.0000
40
2.5000
1
-F1
72
1
11
72.0000
21
204.0000
31
0.0000
0
POLYLINE
8
FILS
66
1
10
0.0000
20
0.0000
30
0.0000
70
0
0
VERTEX
8
FILS
10
80.0000
20
192.0000
30
0.0000
0
VERTEX
8
FILS
10
80.0000
20
177.0000
30
0.0000
0
SEQEND
8
FILS
0
TEXT
8
REPERES
10
80.0000
20
185.7000
30
0.0000
40
2.0000
1
202A
72
1
11
80.0000
21
185.7000
31
0.0000
0
INSERT
8
SYMBOLES
2
IEC_PUSHBUTTON-NC
10
80.0000
20
167.0000
30
0.0000
41
1.0000
42
1.0000
43
1.0000
50
0.0000
0
TEXT
8
REPERES
10
72.0000
20
169.0000
30
0.0000
40
2.5000
1
-S1
72
1
11
72.0000
21
169.0000
31
0.0000
0
POLYLINE
8
FILS
66
1
10
0.0000
20
0.0000
30
0.0000
70
0
0
VERTEX
8
FILS
10
80.0000
20
157.0000
30
0.0000
0
VERTEX
8
FILS
10
80.0000
20
137.0000
30
0.0000
0
SEQEND
8
FILS
0
TEXT
8
REPERES
10
80.0000
20
148.2000
30
0.0000
40
2.0000
1
202B
72
1
11
80.0000
21
148.2000
31
0.0000
0
INSERT
8
SYMBOLES
2
IEC_PUSHBUTTON-NO
10
80.0000
20
127.0000
30
0.0000
41
1.0000
42
1.0000
43
1.0000
50
0.0000
0
TEXT
8
REPERES
10
72.0000
20
129.0000
30
0.0000
40
2.5000
1
-S2
72
1
11
72.0000
21
129.0000
31
0.0000
0
INSERT
8
SYMBOLES
2
IEC_CONTACT-NO
10
110.0000
20
127.0000
30
0.0000
41
1.0000
42
1.0000
43
1.0000
50
0.0000
0
TEXT
8
REPERES
10
102.0000
20
129.0000
30
0.0000
40
2.5000
1
-K1
72
1
11
102.0000
21
129.0000
31
0.0000
0
POLYLINE
8
FILS
66
1
10
0.0000
20
0.0000
30
0.0000
70
0
0
VERTEX
8
FILS
10
80.0000
20
137.0000
30
0.0000
0
VERTEX
8
FILS
10
110.0000
20
137.0000
30
0.0000
0
SEQEND
8
FILS
0
TEXT
8
REPERES
10
95.0000
20
138.2000
30
0.0000
40
2.0000
1
202B
72
1
11
95.0000
21
138.2000
31
0.0000
0
POLYLINE
8
FILS
66
1
10
0.0000
20
0.0000
30
0.0000
70
0
0
VERTEX
8
FILS
10
80.0000
20
117.0000
30
0.0000
0
VERTEX
8
FILS
10
110.0000
20
117.0000
30
0.0000
0
SEQEND
8
FILS
0
TEXT
8
REPERES
10
95.0000
20
118.2000
30
0.0000
40
2.0000
1
202C
72
1
11
95.0000
21
118.2000
31
0.0000
0
CIRCLE
8
FILS
10
80.0000
20
137.0000
30
0.0000
40
0.6000
0
CIRCLE
8
FILS
10
80.0000
20
117.0000
30
0.0000
40
0.6000
0
POLYLINE
8
FILS
66
1
10
0.0000
20
0.0000
30
0.0000
70
0
0
VERTEX
8
FILS
10
80.0000
20
117.0000
30
0.0000
0
VERTEX
8
FILS
10
80.0000
20
92.0000
30
0.0000
0
SEQEND
8
FILS
0
TEXT
8
REPERES
10
80.0000
20
105.7000
30
0.0000
40
2.0000
1
202C
72
1
11
80.0000
21
105.7000
31
0.0000
0
INSERT
8
SYMBOLES
2
IEC_COIL
10
80.0000
20
82.0000
30
0.0000
41
1.0000
42
1.0000
43
1.0000
50
0.0000
0
TEXT
8
REPERES
10
72.0000
20
84.0000
30
0.0000
40
2.5000
1
-K1
72
1
11
72.0000
21
84.0000
31
0.0000
0
INSERT
8
SYMBOLES
2
IEC_INDICATOR-LAMP
10
145.0000
20
82.0000
30
0.0000
41
1.0000
42
1.0000
43
1.0000
50
0.0000
0
TEXT
8
REPERES
10
137.0000
20
84.0000
30
0.0000
40
2.5000
1
-H1
72
1
11
137.0000
21
84.0000
31
0.0000
0
POLYLINE
8
FILS
66
1
10
0.0000
20
0.0000
30
0.0000
70
0
0
VERTEX
8
FILS
10
80.0000
20
92.0000
30
0.0000
0
VERTEX
8
FILS
10
145.0000
20
92.0000
30
0.0000
0
SEQEND
8
FILS
0
TEXT
8
REPERES
10
112.5000
20
93.2000
30
0.0000
40
2.0000
1
202C
72
1
11
112.5000
21
93.2000
31
0.0000
0
POLYLINE
8
FILS
66
1
10
0.0000
20
0.0000
30
0.0000
70
0
0
VERTEX
8
FILS
10
80.0000
20
72.0000
30
0.0000
0
VERTEX
8
FILS
10
145.0000
20
72.0000
30
0.0000
0
SEQEND
8
FILS
0
TEXT
8
REPERES
10
112.5000
20
73.2000
30
0.0000
40
2.0000
1
202D
72
1
11
112.5000
21
73.2000
31
0.0000
0
CIRCLE
8
FILS
10
80.0000
20
92.0000
30
0.0000
40
0.6000
0
CIRCLE
8
FILS
10
80.0000
20
72.0000
30
0.0000
40
0.6000
0
POLYLINE
8
FILS
66
1
10
0.0000
20
0.0000
30
0.0000
70
0
0
VERTEX
8
FILS
10
80.0000
20
72.0000
30
0.0000
0
VERTEX
8
FILS
10
80.0000
20
52.0000
30
0.0000
0
SEQEND
8
FILS
0
TEXT
8
REPERES
10
80.0000
20
63.2000
30
0.0000
40
2.0000
1
202D
72
1
11
80.0000
21
63.2000
31
0.0000
0
TEXT
8
REPERES
10
80.0000
20
53.5000
30
0.0000
40
2.0000
1
N
72
1
11
80.0000
21
53.5000
31
0.0000
0
ENDSEC
0
EOF
